<mxfile host="app.diagrams.net" agent="Mozilla/5.0 (Windows NT 10.0; Win64; x64) AppleWebKit/537.36 (KHTML, like Gecko) Chrome/135.0.0.0 Safari/537.36" version="26.1.1">
  <diagram name="第 1 页" id="GyxrAM_ZPkniEr9Nosak">
    <mxGraphModel dx="1302" dy="675" grid="1" gridSize="10" guides="1" tooltips="1" connect="1" arrows="1" fold="1" page="1" pageScale="1" pageWidth="3300" pageHeight="4681" math="0" shadow="0">
      <root>
        <mxCell id="0" />
        <mxCell id="1" parent="0" />
        <mxCell id="e49OyC6HuF6PmnADaqPu-2" value="W800" style="rounded=1;whiteSpace=wrap;html=1;" vertex="1" parent="1">
          <mxGeometry x="400" y="140" width="100" height="350" as="geometry" />
        </mxCell>
        <mxCell id="e49OyC6HuF6PmnADaqPu-3" value="TYPE-C" style="rounded=1;whiteSpace=wrap;html=1;" vertex="1" parent="1">
          <mxGeometry x="110" y="240" width="120" height="60" as="geometry" />
        </mxCell>
        <mxCell id="e49OyC6HuF6PmnADaqPu-4" value="外部供电" style="rounded=1;whiteSpace=wrap;html=1;" vertex="1" parent="1">
          <mxGeometry x="110" y="325" width="120" height="60" as="geometry" />
        </mxCell>
        <mxCell id="e49OyC6HuF6PmnADaqPu-8" style="edgeStyle=orthogonalEdgeStyle;rounded=0;orthogonalLoop=1;jettySize=auto;html=1;exitX=1;exitY=0.5;exitDx=0;exitDy=0;" edge="1" parent="1" source="e49OyC6HuF6PmnADaqPu-5" target="e49OyC6HuF6PmnADaqPu-2">
          <mxGeometry relative="1" as="geometry" />
        </mxCell>
        <mxCell id="e49OyC6HuF6PmnADaqPu-9" value="电源" style="edgeLabel;html=1;align=center;verticalAlign=middle;resizable=0;points=[];" vertex="1" connectable="0" parent="e49OyC6HuF6PmnADaqPu-8">
          <mxGeometry x="-0.2" relative="1" as="geometry">
            <mxPoint as="offset" />
          </mxGeometry>
        </mxCell>
        <mxCell id="e49OyC6HuF6PmnADaqPu-5" value="1117" style="rounded=1;whiteSpace=wrap;html=1;" vertex="1" parent="1">
          <mxGeometry x="260" y="240" width="70" height="150" as="geometry" />
        </mxCell>
        <mxCell id="e49OyC6HuF6PmnADaqPu-10" value="" style="endArrow=none;html=1;rounded=0;" edge="1" parent="1">
          <mxGeometry width="50" height="50" relative="1" as="geometry">
            <mxPoint x="140" y="170" as="sourcePoint" />
            <mxPoint x="400" y="170" as="targetPoint" />
          </mxGeometry>
        </mxCell>
        <mxCell id="e49OyC6HuF6PmnADaqPu-14" value="PB20_UART0_RX" style="edgeLabel;html=1;align=center;verticalAlign=middle;resizable=0;points=[];" vertex="1" connectable="0" parent="e49OyC6HuF6PmnADaqPu-10">
          <mxGeometry x="-0.1213" y="2" relative="1" as="geometry">
            <mxPoint as="offset" />
          </mxGeometry>
        </mxCell>
        <mxCell id="e49OyC6HuF6PmnADaqPu-11" value="" style="endArrow=none;html=1;rounded=0;" edge="1" parent="1">
          <mxGeometry width="50" height="50" relative="1" as="geometry">
            <mxPoint x="180" y="200" as="sourcePoint" />
            <mxPoint x="400" y="200" as="targetPoint" />
          </mxGeometry>
        </mxCell>
        <mxCell id="e49OyC6HuF6PmnADaqPu-15" value="PB19_UART0_TX" style="edgeLabel;html=1;align=center;verticalAlign=middle;resizable=0;points=[];" vertex="1" connectable="0" parent="e49OyC6HuF6PmnADaqPu-11">
          <mxGeometry x="-0.5604" y="3" relative="1" as="geometry">
            <mxPoint x="22" as="offset" />
          </mxGeometry>
        </mxCell>
        <mxCell id="e49OyC6HuF6PmnADaqPu-12" value="" style="endArrow=classic;html=1;rounded=0;" edge="1" parent="1">
          <mxGeometry width="50" height="50" relative="1" as="geometry">
            <mxPoint x="140" y="170" as="sourcePoint" />
            <mxPoint x="140" y="240" as="targetPoint" />
          </mxGeometry>
        </mxCell>
        <mxCell id="e49OyC6HuF6PmnADaqPu-13" value="" style="endArrow=classic;html=1;rounded=0;entryX=0.573;entryY=-0.047;entryDx=0;entryDy=0;entryPerimeter=0;" edge="1" parent="1">
          <mxGeometry width="50" height="50" relative="1" as="geometry">
            <mxPoint x="180" y="200" as="sourcePoint" />
            <mxPoint x="179.9999999999999" y="240" as="targetPoint" />
          </mxGeometry>
        </mxCell>
        <mxCell id="e49OyC6HuF6PmnADaqPu-16" value="TTL" style="rounded=1;whiteSpace=wrap;html=1;" vertex="1" parent="1">
          <mxGeometry x="670" y="400" width="80" height="90" as="geometry" />
        </mxCell>
        <mxCell id="e49OyC6HuF6PmnADaqPu-17" value="" style="endArrow=classic;html=1;rounded=0;entryX=0;entryY=0.75;entryDx=0;entryDy=0;exitX=1.004;exitY=0.937;exitDx=0;exitDy=0;exitPerimeter=0;" edge="1" parent="1" source="e49OyC6HuF6PmnADaqPu-2" target="e49OyC6HuF6PmnADaqPu-16">
          <mxGeometry width="50" height="50" relative="1" as="geometry">
            <mxPoint x="500" y="470" as="sourcePoint" />
            <mxPoint x="590" y="470" as="targetPoint" />
          </mxGeometry>
        </mxCell>
        <mxCell id="e49OyC6HuF6PmnADaqPu-20" value="PB7_UART1_RX" style="edgeLabel;html=1;align=center;verticalAlign=middle;resizable=0;points=[];" vertex="1" connectable="0" parent="e49OyC6HuF6PmnADaqPu-17">
          <mxGeometry x="-0.6745" relative="1" as="geometry">
            <mxPoint x="32" as="offset" />
          </mxGeometry>
        </mxCell>
        <mxCell id="e49OyC6HuF6PmnADaqPu-18" value="" style="endArrow=classic;html=1;rounded=0;entryX=0;entryY=0.75;entryDx=0;entryDy=0;exitX=1.004;exitY=0.937;exitDx=0;exitDy=0;exitPerimeter=0;" edge="1" parent="1">
          <mxGeometry width="50" height="50" relative="1" as="geometry">
            <mxPoint x="500" y="430" as="sourcePoint" />
            <mxPoint x="670" y="430" as="targetPoint" />
          </mxGeometry>
        </mxCell>
        <mxCell id="e49OyC6HuF6PmnADaqPu-19" value="PB6_UART1_TX" style="edgeLabel;html=1;align=center;verticalAlign=middle;resizable=0;points=[];" vertex="1" connectable="0" parent="e49OyC6HuF6PmnADaqPu-18">
          <mxGeometry x="-0.3667" y="-1" relative="1" as="geometry">
            <mxPoint x="6" as="offset" />
          </mxGeometry>
        </mxCell>
        <mxCell id="e49OyC6HuF6PmnADaqPu-21" value="RS232" style="rounded=1;whiteSpace=wrap;html=1;" vertex="1" parent="1">
          <mxGeometry x="670" y="274" width="80" height="90" as="geometry" />
        </mxCell>
        <mxCell id="e49OyC6HuF6PmnADaqPu-22" value="" style="endArrow=classic;html=1;rounded=0;entryX=0;entryY=0.75;entryDx=0;entryDy=0;exitX=1.004;exitY=0.937;exitDx=0;exitDy=0;exitPerimeter=0;" edge="1" parent="1" target="e49OyC6HuF6PmnADaqPu-21">
          <mxGeometry width="50" height="50" relative="1" as="geometry">
            <mxPoint x="500" y="342" as="sourcePoint" />
            <mxPoint x="590" y="344" as="targetPoint" />
          </mxGeometry>
        </mxCell>
        <mxCell id="e49OyC6HuF6PmnADaqPu-23" value="PB3_UART2_RX" style="edgeLabel;html=1;align=center;verticalAlign=middle;resizable=0;points=[];" vertex="1" connectable="0" parent="e49OyC6HuF6PmnADaqPu-22">
          <mxGeometry x="-0.6745" relative="1" as="geometry">
            <mxPoint x="32" as="offset" />
          </mxGeometry>
        </mxCell>
        <mxCell id="e49OyC6HuF6PmnADaqPu-24" value="" style="endArrow=classic;html=1;rounded=0;entryX=0;entryY=0.75;entryDx=0;entryDy=0;exitX=1.004;exitY=0.937;exitDx=0;exitDy=0;exitPerimeter=0;" edge="1" parent="1">
          <mxGeometry width="50" height="50" relative="1" as="geometry">
            <mxPoint x="500" y="304" as="sourcePoint" />
            <mxPoint x="670" y="304" as="targetPoint" />
          </mxGeometry>
        </mxCell>
        <mxCell id="e49OyC6HuF6PmnADaqPu-25" value="PB2_UART2_TX" style="edgeLabel;html=1;align=center;verticalAlign=middle;resizable=0;points=[];" vertex="1" connectable="0" parent="e49OyC6HuF6PmnADaqPu-24">
          <mxGeometry x="-0.3667" y="-1" relative="1" as="geometry">
            <mxPoint x="6" as="offset" />
          </mxGeometry>
        </mxCell>
        <mxCell id="e49OyC6HuF6PmnADaqPu-26" value="RS485" style="rounded=1;whiteSpace=wrap;html=1;" vertex="1" parent="1">
          <mxGeometry x="670" y="150" width="80" height="90" as="geometry" />
        </mxCell>
        <mxCell id="e49OyC6HuF6PmnADaqPu-27" value="" style="endArrow=classic;html=1;rounded=0;entryX=0;entryY=0.75;entryDx=0;entryDy=0;exitX=1.004;exitY=0.937;exitDx=0;exitDy=0;exitPerimeter=0;" edge="1" parent="1" target="e49OyC6HuF6PmnADaqPu-26">
          <mxGeometry width="50" height="50" relative="1" as="geometry">
            <mxPoint x="500" y="218" as="sourcePoint" />
            <mxPoint x="590" y="220" as="targetPoint" />
          </mxGeometry>
        </mxCell>
        <mxCell id="e49OyC6HuF6PmnADaqPu-28" value="PB0_UART3_RX" style="edgeLabel;html=1;align=center;verticalAlign=middle;resizable=0;points=[];" vertex="1" connectable="0" parent="e49OyC6HuF6PmnADaqPu-27">
          <mxGeometry x="-0.6745" relative="1" as="geometry">
            <mxPoint x="32" as="offset" />
          </mxGeometry>
        </mxCell>
        <mxCell id="e49OyC6HuF6PmnADaqPu-29" value="" style="endArrow=classic;html=1;rounded=0;entryX=0;entryY=0.75;entryDx=0;entryDy=0;exitX=1.004;exitY=0.937;exitDx=0;exitDy=0;exitPerimeter=0;" edge="1" parent="1">
          <mxGeometry width="50" height="50" relative="1" as="geometry">
            <mxPoint x="500" y="180" as="sourcePoint" />
            <mxPoint x="670" y="180" as="targetPoint" />
          </mxGeometry>
        </mxCell>
        <mxCell id="e49OyC6HuF6PmnADaqPu-30" value="PB0_UART3_TX" style="edgeLabel;html=1;align=center;verticalAlign=middle;resizable=0;points=[];" vertex="1" connectable="0" parent="e49OyC6HuF6PmnADaqPu-29">
          <mxGeometry x="-0.3667" y="-1" relative="1" as="geometry">
            <mxPoint x="6" as="offset" />
          </mxGeometry>
        </mxCell>
      </root>
    </mxGraphModel>
  </diagram>
</mxfile>
